<svg xmlns="http://www.w3.org/2000/svg" version="1.1" xmlns:xlink="http://www.w3.org/1999/xlink" xmlns:svgjs="http://svgjs.com/svgjs" width="1440" height="560" preserveAspectRatio="none" viewBox="0 0 1440 560"><g mask="url(&quot;#SvgjsMask1115&quot;)" fill="none"><rect width="1440" height="560" x="0" y="0" fill="url(#SvgjsLinearGradient1116)"></rect><path d="M-61.22 361.04L-61.22 361.04" stroke="#132e65" stroke-width="1.5"></path><path d="M-61.22 361.04L85.6 407.29" stroke="#132e65" stroke-width="1.5"></path><path d="M-61.22 361.04L-60.65 550.48" stroke="#132e65" stroke-width="1.5"></path><path d="M-61.22 361.04L75.09 494.94" stroke="#132e65" stroke-width="1.5"></path><path d="M-61.22 361.04L194.26 364.49" stroke="#132e65" stroke-width="1.5"></path><path d="M-61.22 361.04L-101.02 670.46" stroke="#132e65" stroke-width="1.5"></path><path d="M-61.22 361.04L218.91 548.02" stroke="#132e65" stroke-width="1.5"></path><path d="M-60.65 550.48L-60.65 550.48" stroke="#132e65" stroke-width="1.5"></path><path d="M-60.65 550.48L-101.02 670.46" stroke="#132e65" stroke-width="1.5"></path><path d="M-60.65 550.48L75.09 494.94" stroke="#132e65" stroke-width="1.5"></path><path d="M-60.65 550.48L85.6 407.29" stroke="#132e65" stroke-width="1.5"></path><path d="M-60.65 550.48L96.06 711.95" stroke="#132e65" stroke-width="1.5"></path><path d="M-60.65 550.48L218.91 548.02" stroke="#132e65" stroke-width="1.5"></path><path d="M-101.02 670.46L-101.02 670.46" stroke="#132e65" stroke-width="1.5"></path><path d="M-101.02 670.46L96.06 711.95" stroke="#132e65" stroke-width="1.5"></path><path d="M-101.02 670.46L75.09 494.94" stroke="#132e65" stroke-width="1.5"></path><path d="M-101.02 670.46L85.6 407.29" stroke="#132e65" stroke-width="1.5"></path><path d="M85.6 407.29L85.6 407.29" stroke="#132e65" stroke-width="1.5"></path><path d="M85.6 407.29L75.09 494.94" stroke="#132e65" stroke-width="1.5"></path><path d="M85.6 407.29L194.26 364.49" stroke="#132e65" stroke-width="1.5"></path><path d="M85.6 407.29L218.91 548.02" stroke="#132e65" stroke-width="1.5"></path><path d="M75.09 494.94L75.09 494.94" stroke="#132e65" stroke-width="1.5"></path><path d="M75.09 494.94L218.91 548.02" stroke="#132e65" stroke-width="1.5"></path><path d="M75.09 494.94L194.26 364.49" stroke="#132e65" stroke-width="1.5"></path><path d="M96.06 711.95L96.06 711.95" stroke="#132e65" stroke-width="1.5"></path><path d="M96.06 711.95L247.02 680.88" stroke="#132e65" stroke-width="1.5"></path><path d="M194.26 364.49L194.26 364.49" stroke="#132e65" stroke-width="1.5"></path><path d="M194.26 364.49L362.41 375.59" stroke="#132e65" stroke-width="1.5"></path><path d="M194.26 364.49L218.91 548.02" stroke="#132e65" stroke-width="1.5"></path><path d="M194.26 364.49L379.57 525.52" stroke="#132e65" stroke-width="1.5"></path><path d="M218.91 548.02L218.91 548.02" stroke="#132e65" stroke-width="1.5"></path><path d="M218.91 548.02L247.02 680.88" stroke="#132e65" stroke-width="1.5"></path><path d="M247.02 680.88L247.02 680.88" stroke="#132e65" stroke-width="1.5"></path><path d="M247.02 680.88L397.32 652.74" stroke="#132e65" stroke-width="1.5"></path><path d="M247.02 680.88L379.57 525.52" stroke="#132e65" stroke-width="1.5"></path><path d="M362.41 375.59L362.41 375.59" stroke="#132e65" stroke-width="1.5"></path><path d="M362.41 375.59L488.92 343.66" stroke="#132e65" stroke-width="1.5"></path><path d="M362.41 375.59L379.57 525.52" stroke="#132e65" stroke-width="1.5"></path><path d="M362.41 375.59L218.91 548.02" stroke="#132e65" stroke-width="1.5"></path><path d="M379.57 525.52L379.57 525.52" stroke="#132e65" stroke-width="1.5"></path><path d="M379.57 525.52L397.32 652.74" stroke="#132e65" stroke-width="1.5"></path><path d="M379.57 525.52L218.91 548.02" stroke="#132e65" stroke-width="1.5"></path><path d="M379.57 525.52L558.86 536.5" stroke="#132e65" stroke-width="1.5"></path><path d="M397.32 652.74L397.32 652.74" stroke="#132e65" stroke-width="1.5"></path><path d="M488.92 343.66L488.92 343.66" stroke="#132e65" stroke-width="1.5"></path><path d="M488.92 343.66L670.75 255" stroke="#132e65" stroke-width="1.5"></path><path d="M488.92 343.66L558.86 536.5" stroke="#132e65" stroke-width="1.5"></path><path d="M488.92 343.66L379.57 525.52" stroke="#132e65" stroke-width="1.5"></path><path d="M488.92 343.66L645.84 504.35" stroke="#132e65" stroke-width="1.5"></path><path d="M558.86 536.5L558.86 536.5" stroke="#132e65" stroke-width="1.5"></path><path d="M558.86 536.5L645.84 504.35" stroke="#132e65" stroke-width="1.5"></path><path d="M558.86 536.5L558.47 646.14" stroke="#132e65" stroke-width="1.5"></path><path d="M558.86 536.5L648.61 651.86" stroke="#132e65" stroke-width="1.5"></path><path d="M558.47 646.14L558.47 646.14" stroke="#132e65" stroke-width="1.5"></path><path d="M558.47 646.14L648.61 651.86" stroke="#132e65" stroke-width="1.5"></path><path d="M558.47 646.14L397.32 652.74" stroke="#132e65" stroke-width="1.5"></path><path d="M670.75 255L670.75 255" stroke="#132e65" stroke-width="1.5"></path><path d="M670.75 255L845.5 258.31" stroke="#132e65" stroke-width="1.5"></path><path d="M670.75 255L645.84 504.35" stroke="#132e65" stroke-width="1.5"></path><path d="M645.84 504.35L645.84 504.35" stroke="#132e65" stroke-width="1.5"></path><path d="M648.61 651.86L648.61 651.86" stroke="#132e65" stroke-width="1.5"></path><path d="M648.61 651.86L645.84 504.35" stroke="#132e65" stroke-width="1.5"></path><path d="M648.61 651.86L858.44 652.96" stroke="#132e65" stroke-width="1.5"></path><path d="M648.61 651.86L830.14 517.15" stroke="#132e65" stroke-width="1.5"></path><path d="M845.5 258.31L845.5 258.31" stroke="#132e65" stroke-width="1.5"></path><path d="M845.5 258.31L937.66 233.51" stroke="#132e65" stroke-width="1.5"></path><path d="M845.5 258.31L968.35 360.79" stroke="#132e65" stroke-width="1.5"></path><path d="M845.5 258.31L951.38 77.48" stroke="#132e65" stroke-width="1.5"></path><path d="M845.5 258.31L830.14 517.15" stroke="#132e65" stroke-width="1.5"></path><path d="M845.5 258.31L1091.47 406.6" stroke="#132e65" stroke-width="1.5"></path><path d="M830.14 517.15L830.14 517.15" stroke="#132e65" stroke-width="1.5"></path><path d="M830.14 517.15L858.44 652.96" stroke="#132e65" stroke-width="1.5"></path><path d="M830.14 517.15L645.84 504.35" stroke="#132e65" stroke-width="1.5"></path><path d="M830.14 517.15L968.35 360.79" stroke="#132e65" stroke-width="1.5"></path><path d="M830.14 517.15L986.39 676.28" stroke="#132e65" stroke-width="1.5"></path><path d="M858.44 652.96L858.44 652.96" stroke="#132e65" stroke-width="1.5"></path><path d="M858.44 652.96L986.39 676.28" stroke="#132e65" stroke-width="1.5"></path><path d="M858.44 652.96L645.84 504.35" stroke="#132e65" stroke-width="1.5"></path><path d="M858.44 652.96L1113.24 531.73" stroke="#132e65" stroke-width="1.5"></path><path d="M979.23 -59.73L979.23 -59.73" stroke="#132e65" stroke-width="1.5"></path><path d="M979.23 -59.73L951.38 77.48" stroke="#132e65" stroke-width="1.5"></path><path d="M979.23 -59.73L1134.93 -40.98" stroke="#132e65" stroke-width="1.5"></path><path d="M979.23 -59.73L937.66 233.51" stroke="#132e65" stroke-width="1.5"></path><path d="M979.23 -59.73L1290.19 -51.33" stroke="#132e65" stroke-width="1.5"></path><path d="M979.23 -59.73L1270.84 89.24" stroke="#132e65" stroke-width="1.5"></path><path d="M951.38 77.48L951.38 77.48" stroke="#132e65" stroke-width="1.5"></path><path d="M951.38 77.48L937.66 233.51" stroke="#132e65" stroke-width="1.5"></path><path d="M937.66 233.51L937.66 233.51" stroke="#132e65" stroke-width="1.5"></path><path d="M937.66 233.51L968.35 360.79" stroke="#132e65" stroke-width="1.5"></path><path d="M968.35 360.79L968.35 360.79" stroke="#132e65" stroke-width="1.5"></path><path d="M968.35 360.79L1091.47 406.6" stroke="#132e65" stroke-width="1.5"></path><path d="M986.39 676.28L986.39 676.28" stroke="#132e65" stroke-width="1.5"></path><path d="M986.39 676.28L1139.77 686.34" stroke="#132e65" stroke-width="1.5"></path><path d="M986.39 676.28L1113.24 531.73" stroke="#132e65" stroke-width="1.5"></path><path d="M986.39 676.28L1091.47 406.6" stroke="#132e65" stroke-width="1.5"></path><path d="M1134.93 -40.98L1134.93 -40.98" stroke="#132e65" stroke-width="1.5"></path><path d="M1134.93 -40.98L1290.19 -51.33" stroke="#132e65" stroke-width="1.5"></path><path d="M1134.93 -40.98L1270.84 89.24" stroke="#132e65" stroke-width="1.5"></path><path d="M1134.93 -40.98L951.38 77.48" stroke="#132e65" stroke-width="1.5"></path><path d="M1134.93 -40.98L1160.66 215.48" stroke="#132e65" stroke-width="1.5"></path><path d="M1134.93 -40.98L1389.53 62.95" stroke="#132e65" stroke-width="1.5"></path><path d="M1160.66 215.48L1160.66 215.48" stroke="#132e65" stroke-width="1.5"></path><path d="M1160.66 215.48L1252.62 261.44" stroke="#132e65" stroke-width="1.5"></path><path d="M1160.66 215.48L1270.84 89.24" stroke="#132e65" stroke-width="1.5"></path><path d="M1160.66 215.48L1280.79 374.5" stroke="#132e65" stroke-width="1.5"></path><path d="M1160.66 215.48L1091.47 406.6" stroke="#132e65" stroke-width="1.5"></path><path d="M1091.47 406.6L1091.47 406.6" stroke="#132e65" stroke-width="1.5"></path><path d="M1091.47 406.6L1113.24 531.73" stroke="#132e65" stroke-width="1.5"></path><path d="M1091.47 406.6L1280.79 374.5" stroke="#132e65" stroke-width="1.5"></path><path d="M1091.47 406.6L1252.62 261.44" stroke="#132e65" stroke-width="1.5"></path><path d="M1113.24 531.73L1113.24 531.73" stroke="#132e65" stroke-width="1.5"></path><path d="M1113.24 531.73L1259.81 551.43" stroke="#132e65" stroke-width="1.5"></path><path d="M1113.24 531.73L1139.77 686.34" stroke="#132e65" stroke-width="1.5"></path><path d="M1139.77 686.34L1139.77 686.34" stroke="#132e65" stroke-width="1.5"></path><path d="M1139.77 686.34L1279.51 695.39" stroke="#132e65" stroke-width="1.5"></path><path d="M1290.19 -51.33L1290.19 -51.33" stroke="#132e65" stroke-width="1.5"></path><path d="M1290.19 -51.33L1270.84 89.24" stroke="#132e65" stroke-width="1.5"></path><path d="M1270.84 89.24L1270.84 89.24" stroke="#132e65" stroke-width="1.5"></path><path d="M1270.84 89.24L1389.53 62.95" stroke="#132e65" stroke-width="1.5"></path><path d="M1270.84 89.24L1252.62 261.44" stroke="#132e65" stroke-width="1.5"></path><path d="M1252.62 261.44L1252.62 261.44" stroke="#132e65" stroke-width="1.5"></path><path d="M1252.62 261.44L1280.79 374.5" stroke="#132e65" stroke-width="1.5"></path><path d="M1252.62 261.44L1417.09 259.79" stroke="#132e65" stroke-width="1.5"></path><path d="M1280.79 374.5L1280.79 374.5" stroke="#132e65" stroke-width="1.5"></path><path d="M1280.79 374.5L1453.3 345.71" stroke="#132e65" stroke-width="1.5"></path><path d="M1280.79 374.5L1417.09 259.79" stroke="#132e65" stroke-width="1.5"></path><path d="M1280.79 374.5L1259.81 551.43" stroke="#132e65" stroke-width="1.5"></path><path d="M1259.81 551.43L1259.81 551.43" stroke="#132e65" stroke-width="1.5"></path><path d="M1259.81 551.43L1279.51 695.39" stroke="#132e65" stroke-width="1.5"></path><path d="M1259.81 551.43L1403.05 654.71" stroke="#132e65" stroke-width="1.5"></path><path d="M1279.51 695.39L1279.51 695.39" stroke="#132e65" stroke-width="1.5"></path><path d="M1279.51 695.39L1403.05 654.71" stroke="#132e65" stroke-width="1.5"></path><path d="M1456.44 -70.62L1456.44 -70.62" stroke="#132e65" stroke-width="1.5"></path><path d="M1456.44 -70.62L1604.47 -77.22" stroke="#132e65" stroke-width="1.5"></path><path d="M1456.44 -70.62L1389.53 62.95" stroke="#132e65" stroke-width="1.5"></path><path d="M1456.44 -70.62L1290.19 -51.33" stroke="#132e65" stroke-width="1.5"></path><path d="M1456.44 -70.62L1587.89 100.27" stroke="#132e65" stroke-width="1.5"></path><path d="M1456.44 -70.62L1270.84 89.24" stroke="#132e65" stroke-width="1.5"></path><path d="M1389.53 62.95L1389.53 62.95" stroke="#132e65" stroke-width="1.5"></path><path d="M1389.53 62.95L1290.19 -51.33" stroke="#132e65" stroke-width="1.5"></path><path d="M1389.53 62.95L1417.09 259.79" stroke="#132e65" stroke-width="1.5"></path><path d="M1389.53 62.95L1587.89 100.27" stroke="#132e65" stroke-width="1.5"></path><path d="M1389.53 62.95L1252.62 261.44" stroke="#132e65" stroke-width="1.5"></path><path d="M1417.09 259.79L1417.09 259.79" stroke="#132e65" stroke-width="1.5"></path><path d="M1417.09 259.79L1453.3 345.71" stroke="#132e65" stroke-width="1.5"></path><path d="M1417.09 259.79L1551.78 250.71" stroke="#132e65" stroke-width="1.5"></path><path d="M1453.3 345.71L1453.3 345.71" stroke="#132e65" stroke-width="1.5"></path><path d="M1453.3 345.71L1551.78 250.71" stroke="#132e65" stroke-width="1.5"></path><path d="M1453.3 345.71L1586.23 407.26" stroke="#132e65" stroke-width="1.5"></path><path d="M1453.3 345.71L1445.13 529.3" stroke="#132e65" stroke-width="1.5"></path><path d="M1453.3 345.71L1576.03 491.05" stroke="#132e65" stroke-width="1.5"></path><path d="M1445.13 529.3L1445.13 529.3" stroke="#132e65" stroke-width="1.5"></path><path d="M1445.13 529.3L1403.05 654.71" stroke="#132e65" stroke-width="1.5"></path><path d="M1445.13 529.3L1576.03 491.05" stroke="#132e65" stroke-width="1.5"></path><path d="M1445.13 529.3L1565.82 637.93" stroke="#132e65" stroke-width="1.5"></path><path d="M1445.13 529.3L1586.23 407.26" stroke="#132e65" stroke-width="1.5"></path><path d="M1403.05 654.71L1403.05 654.71" stroke="#132e65" stroke-width="1.5"></path><path d="M1403.05 654.71L1565.82 637.93" stroke="#132e65" stroke-width="1.5"></path><path d="M1403.05 654.71L1576.03 491.05" stroke="#132e65" stroke-width="1.5"></path><path d="M1403.05 654.71L1139.77 686.34" stroke="#132e65" stroke-width="1.5"></path><path d="M1604.47 -77.22L1604.47 -77.22" stroke="#132e65" stroke-width="1.5"></path><path d="M1604.47 -77.22L1587.89 100.27" stroke="#132e65" stroke-width="1.5"></path><path d="M1604.47 -77.22L1389.53 62.95" stroke="#132e65" stroke-width="1.5"></path><path d="M1604.47 -77.22L1290.19 -51.33" stroke="#132e65" stroke-width="1.5"></path><path d="M1587.89 100.27L1587.89 100.27" stroke="#132e65" stroke-width="1.5"></path><path d="M1587.89 100.27L1551.78 250.71" stroke="#132e65" stroke-width="1.5"></path><path d="M1551.78 250.71L1551.78 250.71" stroke="#132e65" stroke-width="1.5"></path><path d="M1586.23 407.26L1586.23 407.26" stroke="#132e65" stroke-width="1.5"></path><path d="M1586.23 407.26L1576.03 491.05" stroke="#132e65" stroke-width="1.5"></path><path d="M1576.03 491.05L1576.03 491.05" stroke="#132e65" stroke-width="1.5"></path><path d="M1576.03 491.05L1565.82 637.93" stroke="#132e65" stroke-width="1.5"></path><path d="M1565.82 637.93L1565.82 637.93" stroke="#132e65" stroke-width="1.5"></path><path d="M1565.82 637.93L1586.23 407.26" stroke="#132e65" stroke-width="1.5"></path><path d="M1565.82 637.93L1279.51 695.39" stroke="#132e65" stroke-width="1.5"></path><path d="M1565.82 637.93L1453.3 345.71" stroke="#132e65" stroke-width="1.5"></path><circle r="5" cx="-61.22" cy="361.04" fill="#132e65"></circle><circle r="5" cx="-60.65" cy="550.48" fill="#132e65"></circle><circle r="5" cx="-101.02" cy="670.46" fill="#132e65"></circle><circle r="5" cx="85.6" cy="407.29" fill="#132e65"></circle><circle r="5" cx="75.09" cy="494.94" fill="#132e65"></circle><circle r="5" cx="96.06" cy="711.95" fill="#132e65"></circle><circle r="5" cx="194.26" cy="364.49" fill="#132e65"></circle><circle r="5" cx="218.91" cy="548.02" fill="#132e65"></circle><circle r="5" cx="247.02" cy="680.88" fill="#132e65"></circle><circle r="5" cx="362.41" cy="375.59" fill="#132e65"></circle><circle r="5" cx="379.57" cy="525.52" fill="#132e65"></circle><circle r="5" cx="397.32" cy="652.74" fill="#132e65"></circle><circle r="5" cx="488.92" cy="343.66" fill="#132e65"></circle><circle r="5" cx="558.86" cy="536.5" fill="#132e65"></circle><circle r="5" cx="558.47" cy="646.14" fill="#132e65"></circle><circle r="5" cx="670.75" cy="255" fill="#132e65"></circle><circle r="5" cx="645.84" cy="504.35" fill="#132e65"></circle><circle r="5" cx="648.61" cy="651.86" fill="#132e65"></circle><circle r="5" cx="845.5" cy="258.31" fill="#132e65"></circle><circle r="5" cx="830.14" cy="517.15" fill="#132e65"></circle><circle r="5" cx="858.44" cy="652.96" fill="#132e65"></circle><circle r="5" cx="979.23" cy="-59.73" fill="#132e65"></circle><circle r="5" cx="951.38" cy="77.48" fill="#132e65"></circle><circle r="5" cx="937.66" cy="233.51" fill="#132e65"></circle><circle r="5" cx="968.35" cy="360.79" fill="#132e65"></circle><circle r="5" cx="986.39" cy="676.28" fill="#132e65"></circle><circle r="5" cx="1134.93" cy="-40.98" fill="#132e65"></circle><circle r="5" cx="1160.66" cy="215.48" fill="#132e65"></circle><circle r="5" cx="1091.47" cy="406.6" fill="#132e65"></circle><circle r="5" cx="1113.24" cy="531.73" fill="#132e65"></circle><circle r="5" cx="1139.77" cy="686.34" fill="#132e65"></circle><circle r="5" cx="1290.19" cy="-51.33" fill="#132e65"></circle><circle r="5" cx="1270.84" cy="89.24" fill="#132e65"></circle><circle r="5" cx="1252.62" cy="261.44" fill="#132e65"></circle><circle r="5" cx="1280.79" cy="374.5" fill="#132e65"></circle><circle r="5" cx="1259.81" cy="551.43" fill="#132e65"></circle><circle r="5" cx="1279.51" cy="695.39" fill="#132e65"></circle><circle r="5" cx="1456.44" cy="-70.62" fill="#132e65"></circle><circle r="5" cx="1389.53" cy="62.95" fill="#132e65"></circle><circle r="5" cx="1417.09" cy="259.79" fill="#132e65"></circle><circle r="5" cx="1453.3" cy="345.71" fill="#132e65"></circle><circle r="5" cx="1445.13" cy="529.3" fill="#132e65"></circle><circle r="5" cx="1403.05" cy="654.71" fill="#132e65"></circle><circle r="5" cx="1604.47" cy="-77.22" fill="#132e65"></circle><circle r="5" cx="1587.89" cy="100.27" fill="#132e65"></circle><circle r="5" cx="1551.78" cy="250.71" fill="#132e65"></circle><circle r="5" cx="1586.23" cy="407.26" fill="#132e65"></circle><circle r="5" cx="1576.03" cy="491.05" fill="#132e65"></circle><circle r="5" cx="1565.82" cy="637.93" fill="#132e65"></circle><path d="M-94.9 500.21L-94.9 500.21" stroke="hsl(228.5, 77.2%, 51.5%)" stroke-width="1.5"></path><path d="M-94.9 500.21L-95 662.98" stroke="hsl(228.5, 77.2%, 51.5%)" stroke-width="1.5"></path><path d="M-94.9 500.21L95.09 523.6" stroke="hsl(228.5, 77.2%, 51.5%)" stroke-width="1.5"></path><path d="M-94.9 500.21L216.68 502.53" stroke="hsl(228.5, 77.2%, 51.5%)" stroke-width="1.5"></path><path d="M-94.9 500.21L217.44 652.03" stroke="hsl(228.5, 77.2%, 51.5%)" stroke-width="1.5"></path><path d="M-95 662.98L-95 662.98" stroke="hsl(228.5, 77.2%, 51.5%)" stroke-width="1.5"></path><path d="M-95 662.98L95.09 523.6" stroke="hsl(228.5, 77.2%, 51.5%)" stroke-width="1.5"></path><path d="M-95 662.98L217.44 652.03" stroke="hsl(228.5, 77.2%, 51.5%)" stroke-width="1.5"></path><path d="M710.35 366.72L710.35 366.72" stroke="hsl(228.5, 77.2%, 51.5%)" stroke-width="1.5"></path><path d="M710.35 366.72L822.84 367.73" stroke="hsl(228.5, 77.2%, 51.5%)" stroke-width="1.5"></path><path d="M710.35 366.72L709.14 489.41" stroke="hsl(228.5, 77.2%, 51.5%)" stroke-width="1.5"></path><path d="M710.35 366.72L849.98 529.07" stroke="hsl(228.5, 77.2%, 51.5%)" stroke-width="1.5"></path><path d="M710.35 366.72L516.75 516.51" stroke="hsl(228.5, 77.2%, 51.5%)" stroke-width="1.5"></path><path d="M710.35 366.72L980.34 362.05" stroke="hsl(228.5, 77.2%, 51.5%)" stroke-width="1.5"></path><path d="M710.35 366.72L958.75 252.35" stroke="hsl(228.5, 77.2%, 51.5%)" stroke-width="1.5"></path><path d="M822.84 367.73L822.84 367.73" stroke="hsl(228.5, 77.2%, 51.5%)" stroke-width="1.5"></path><path d="M822.84 367.73L980.34 362.05" stroke="hsl(228.5, 77.2%, 51.5%)" stroke-width="1.5"></path><path d="M958.75 252.35L958.75 252.35" stroke="hsl(228.5, 77.2%, 51.5%)" stroke-width="1.5"></path><path d="M958.75 252.35L980.34 362.05" stroke="hsl(228.5, 77.2%, 51.5%)" stroke-width="1.5"></path><path d="M958.75 252.35L1103.24 200.9" stroke="hsl(228.5, 77.2%, 51.5%)" stroke-width="1.5"></path><path d="M958.75 252.35L822.84 367.73" stroke="hsl(228.5, 77.2%, 51.5%)" stroke-width="1.5"></path><path d="M1309.34 339.77L1309.34 339.77" stroke="hsl(228.5, 77.2%, 51.5%)" stroke-width="1.5"></path><path d="M1309.34 339.77L1287.78 250.81" stroke="hsl(228.5, 77.2%, 51.5%)" stroke-width="1.5"></path><path d="M1309.34 339.77L1430.17 374.01" stroke="hsl(228.5, 77.2%, 51.5%)" stroke-width="1.5"></path><path d="M1309.34 339.77L1161.84 406.22" stroke="hsl(228.5, 77.2%, 51.5%)" stroke-width="1.5"></path><path d="M1309.34 339.77L1277.27 520.75" stroke="hsl(228.5, 77.2%, 51.5%)" stroke-width="1.5"></path><path d="M1309.34 339.77L1444.41 210.08" stroke="hsl(228.5, 77.2%, 51.5%)" stroke-width="1.5"></path><path d="M1309.34 339.77L1440.63 537.75" stroke="hsl(228.5, 77.2%, 51.5%)" stroke-width="1.5"></path><path d="M1443.61 -49.59L1443.61 -49.59" stroke="hsl(228.5, 77.2%, 51.5%)" stroke-width="1.5"></path><path d="M1443.61 -49.59L1428.8 64.14" stroke="hsl(228.5, 77.2%, 51.5%)" stroke-width="1.5"></path><path d="M1443.61 -49.59L1574.23 -98.01" stroke="hsl(228.5, 77.2%, 51.5%)" stroke-width="1.5"></path><path d="M1540.96 207.06L1540.96 207.06" stroke="hsl(228.5, 77.2%, 51.5%)" stroke-width="1.5"></path><path d="M1540.96 207.06L1444.41 210.08" stroke="hsl(228.5, 77.2%, 51.5%)" stroke-width="1.5"></path><path d="M1540.96 207.06L1563.79 343.98" stroke="hsl(228.5, 77.2%, 51.5%)" stroke-width="1.5"></path><path d="M1540.96 207.06L1428.8 64.14" stroke="hsl(228.5, 77.2%, 51.5%)" stroke-width="1.5"></path><path d="M1540.96 207.06L1430.17 374.01" stroke="hsl(228.5, 77.2%, 51.5%)" stroke-width="1.5"></path><path d="M1540.96 207.06L1287.78 250.81" stroke="hsl(228.5, 77.2%, 51.5%)" stroke-width="1.5"></path><path d="M1563.79 343.98L1563.79 343.98" stroke="hsl(228.5, 77.2%, 51.5%)" stroke-width="1.5"></path><path d="M1563.79 343.98L1430.17 374.01" stroke="hsl(228.5, 77.2%, 51.5%)" stroke-width="1.5"></path><path d="M1563.79 343.98L1444.41 210.08" stroke="hsl(228.5, 77.2%, 51.5%)" stroke-width="1.5"></path><path d="M95.09 523.6L95.09 523.6" stroke="hsl(228.5, 77.2%, 51.5%)" stroke-width="1.5"></path><path d="M95.09 523.6L216.68 502.53" stroke="hsl(228.5, 77.2%, 51.5%)" stroke-width="1.5"></path><path d="M95.09 523.6L217.44 652.03" stroke="hsl(228.5, 77.2%, 51.5%)" stroke-width="1.5"></path><path d="M216.68 502.53L216.68 502.53" stroke="hsl(228.5, 77.2%, 51.5%)" stroke-width="1.5"></path><path d="M216.68 502.53L217.44 652.03" stroke="hsl(228.5, 77.2%, 51.5%)" stroke-width="1.5"></path><path d="M216.68 502.53L398.72 648.75" stroke="hsl(228.5, 77.2%, 51.5%)" stroke-width="1.5"></path><path d="M216.68 502.53L516.75 516.51" stroke="hsl(228.5, 77.2%, 51.5%)" stroke-width="1.5"></path><path d="M217.44 652.03L217.44 652.03" stroke="hsl(228.5, 77.2%, 51.5%)" stroke-width="1.5"></path><path d="M217.44 652.03L398.72 648.75" stroke="hsl(228.5, 77.2%, 51.5%)" stroke-width="1.5"></path><path d="M217.44 652.03L516.75 516.51" stroke="hsl(228.5, 77.2%, 51.5%)" stroke-width="1.5"></path><path d="M398.72 648.75L398.72 648.75" stroke="hsl(228.5, 77.2%, 51.5%)" stroke-width="1.5"></path><path d="M398.72 648.75L555.24 693.64" stroke="hsl(228.5, 77.2%, 51.5%)" stroke-width="1.5"></path><path d="M398.72 648.75L516.75 516.51" stroke="hsl(228.5, 77.2%, 51.5%)" stroke-width="1.5"></path><path d="M516.75 516.51L516.75 516.51" stroke="hsl(228.5, 77.2%, 51.5%)" stroke-width="1.5"></path><path d="M516.75 516.51L555.24 693.64" stroke="hsl(228.5, 77.2%, 51.5%)" stroke-width="1.5"></path><path d="M555.24 693.64L555.24 693.64" stroke="hsl(228.5, 77.2%, 51.5%)" stroke-width="1.5"></path><path d="M555.24 693.64L694.02 697.78" stroke="hsl(228.5, 77.2%, 51.5%)" stroke-width="1.5"></path><path d="M555.24 693.64L709.14 489.41" stroke="hsl(228.5, 77.2%, 51.5%)" stroke-width="1.5"></path><path d="M555.24 693.64L858.27 664.02" stroke="hsl(228.5, 77.2%, 51.5%)" stroke-width="1.5"></path><path d="M555.24 693.64L849.98 529.07" stroke="hsl(228.5, 77.2%, 51.5%)" stroke-width="1.5"></path><path d="M709.14 489.41L709.14 489.41" stroke="hsl(228.5, 77.2%, 51.5%)" stroke-width="1.5"></path><path d="M709.14 489.41L849.98 529.07" stroke="hsl(228.5, 77.2%, 51.5%)" stroke-width="1.5"></path><path d="M709.14 489.41L822.84 367.73" stroke="hsl(228.5, 77.2%, 51.5%)" stroke-width="1.5"></path><path d="M709.14 489.41L516.75 516.51" stroke="hsl(228.5, 77.2%, 51.5%)" stroke-width="1.5"></path><path d="M694.02 697.78L694.02 697.78" stroke="hsl(228.5, 77.2%, 51.5%)" stroke-width="1.5"></path><path d="M694.02 697.78L858.27 664.02" stroke="hsl(228.5, 77.2%, 51.5%)" stroke-width="1.5"></path><path d="M694.02 697.78L709.14 489.41" stroke="hsl(228.5, 77.2%, 51.5%)" stroke-width="1.5"></path><path d="M694.02 697.78L849.98 529.07" stroke="hsl(228.5, 77.2%, 51.5%)" stroke-width="1.5"></path><path d="M694.02 697.78L516.75 516.51" stroke="hsl(228.5, 77.2%, 51.5%)" stroke-width="1.5"></path><path d="M849.98 529.07L849.98 529.07" stroke="hsl(228.5, 77.2%, 51.5%)" stroke-width="1.5"></path><path d="M849.98 529.07L981.67 548.06" stroke="hsl(228.5, 77.2%, 51.5%)" stroke-width="1.5"></path><path d="M849.98 529.07L858.27 664.02" stroke="hsl(228.5, 77.2%, 51.5%)" stroke-width="1.5"></path><path d="M849.98 529.07L822.84 367.73" stroke="hsl(228.5, 77.2%, 51.5%)" stroke-width="1.5"></path><path d="M849.98 529.07L980.34 362.05" stroke="hsl(228.5, 77.2%, 51.5%)" stroke-width="1.5"></path><path d="M858.27 664.02L858.27 664.02" stroke="hsl(228.5, 77.2%, 51.5%)" stroke-width="1.5"></path><path d="M858.27 664.02L981.35 701.49" stroke="hsl(228.5, 77.2%, 51.5%)" stroke-width="1.5"></path><path d="M980.34 362.05L980.34 362.05" stroke="hsl(228.5, 77.2%, 51.5%)" stroke-width="1.5"></path><path d="M981.67 548.06L981.67 548.06" stroke="hsl(228.5, 77.2%, 51.5%)" stroke-width="1.5"></path><path d="M981.67 548.06L1092.6 493.01" stroke="hsl(228.5, 77.2%, 51.5%)" stroke-width="1.5"></path><path d="M981.67 548.06L981.35 701.49" stroke="hsl(228.5, 77.2%, 51.5%)" stroke-width="1.5"></path><path d="M981.67 548.06L1112.32 640.84" stroke="hsl(228.5, 77.2%, 51.5%)" stroke-width="1.5"></path><path d="M981.35 701.49L981.35 701.49" stroke="hsl(228.5, 77.2%, 51.5%)" stroke-width="1.5"></path><path d="M981.35 701.49L1112.32 640.84" stroke="hsl(228.5, 77.2%, 51.5%)" stroke-width="1.5"></path><path d="M981.35 701.49L849.98 529.07" stroke="hsl(228.5, 77.2%, 51.5%)" stroke-width="1.5"></path><path d="M1137.7 84.01L1137.7 84.01" stroke="hsl(228.5, 77.2%, 51.5%)" stroke-width="1.5"></path><path d="M1137.7 84.01L1103.24 200.9" stroke="hsl(228.5, 77.2%, 51.5%)" stroke-width="1.5"></path><path d="M1137.7 84.01L1261.63 82.19" stroke="hsl(228.5, 77.2%, 51.5%)" stroke-width="1.5"></path><path d="M1137.7 84.01L1288.03 -77.46" stroke="hsl(228.5, 77.2%, 51.5%)" stroke-width="1.5"></path><path d="M1137.7 84.01L1287.78 250.81" stroke="hsl(228.5, 77.2%, 51.5%)" stroke-width="1.5"></path><path d="M1137.7 84.01L958.75 252.35" stroke="hsl(228.5, 77.2%, 51.5%)" stroke-width="1.5"></path><path d="M1103.24 200.9L1103.24 200.9" stroke="hsl(228.5, 77.2%, 51.5%)" stroke-width="1.5"></path><path d="M1103.24 200.9L1287.78 250.81" stroke="hsl(228.5, 77.2%, 51.5%)" stroke-width="1.5"></path><path d="M1103.24 200.9L1261.63 82.19" stroke="hsl(228.5, 77.2%, 51.5%)" stroke-width="1.5"></path><path d="M1161.84 406.22L1161.84 406.22" stroke="hsl(228.5, 77.2%, 51.5%)" stroke-width="1.5"></path><path d="M1161.84 406.22L1092.6 493.01" stroke="hsl(228.5, 77.2%, 51.5%)" stroke-width="1.5"></path><path d="M1161.84 406.22L1277.27 520.75" stroke="hsl(228.5, 77.2%, 51.5%)" stroke-width="1.5"></path><path d="M1161.84 406.22L980.34 362.05" stroke="hsl(228.5, 77.2%, 51.5%)" stroke-width="1.5"></path><path d="M1161.84 406.22L1287.78 250.81" stroke="hsl(228.5, 77.2%, 51.5%)" stroke-width="1.5"></path><path d="M1161.84 406.22L1103.24 200.9" stroke="hsl(228.5, 77.2%, 51.5%)" stroke-width="1.5"></path><path d="M1092.6 493.01L1092.6 493.01" stroke="hsl(228.5, 77.2%, 51.5%)" stroke-width="1.5"></path><path d="M1092.6 493.01L1112.32 640.84" stroke="hsl(228.5, 77.2%, 51.5%)" stroke-width="1.5"></path><path d="M1092.6 493.01L980.34 362.05" stroke="hsl(228.5, 77.2%, 51.5%)" stroke-width="1.5"></path><path d="M1112.32 640.84L1112.32 640.84" stroke="hsl(228.5, 77.2%, 51.5%)" stroke-width="1.5"></path><path d="M1112.32 640.84L1277.27 520.75" stroke="hsl(228.5, 77.2%, 51.5%)" stroke-width="1.5"></path><path d="M1112.32 640.84L1161.84 406.22" stroke="hsl(228.5, 77.2%, 51.5%)" stroke-width="1.5"></path><path d="M1288.03 -77.46L1288.03 -77.46" stroke="hsl(228.5, 77.2%, 51.5%)" stroke-width="1.5"></path><path d="M1288.03 -77.46L1443.61 -49.59" stroke="hsl(228.5, 77.2%, 51.5%)" stroke-width="1.5"></path><path d="M1288.03 -77.46L1261.63 82.19" stroke="hsl(228.5, 77.2%, 51.5%)" stroke-width="1.5"></path><path d="M1288.03 -77.46L1428.8 64.14" stroke="hsl(228.5, 77.2%, 51.5%)" stroke-width="1.5"></path><path d="M1261.63 82.19L1261.63 82.19" stroke="hsl(228.5, 77.2%, 51.5%)" stroke-width="1.5"></path><path d="M1287.78 250.81L1287.78 250.81" stroke="hsl(228.5, 77.2%, 51.5%)" stroke-width="1.5"></path><path d="M1287.78 250.81L1444.41 210.08" stroke="hsl(228.5, 77.2%, 51.5%)" stroke-width="1.5"></path><path d="M1287.78 250.81L1261.63 82.19" stroke="hsl(228.5, 77.2%, 51.5%)" stroke-width="1.5"></path><path d="M1287.78 250.81L1430.17 374.01" stroke="hsl(228.5, 77.2%, 51.5%)" stroke-width="1.5"></path><path d="M1277.27 520.75L1277.27 520.75" stroke="hsl(228.5, 77.2%, 51.5%)" stroke-width="1.5"></path><path d="M1277.27 520.75L1440.63 537.75" stroke="hsl(228.5, 77.2%, 51.5%)" stroke-width="1.5"></path><path d="M1428.8 64.14L1428.8 64.14" stroke="hsl(228.5, 77.2%, 51.5%)" stroke-width="1.5"></path><path d="M1428.8 64.14L1444.41 210.08" stroke="hsl(228.5, 77.2%, 51.5%)" stroke-width="1.5"></path><path d="M1428.8 64.14L1261.63 82.19" stroke="hsl(228.5, 77.2%, 51.5%)" stroke-width="1.5"></path><path d="M1444.41 210.08L1444.41 210.08" stroke="hsl(228.5, 77.2%, 51.5%)" stroke-width="1.5"></path><path d="M1444.41 210.08L1430.17 374.01" stroke="hsl(228.5, 77.2%, 51.5%)" stroke-width="1.5"></path><path d="M1430.17 374.01L1430.17 374.01" stroke="hsl(228.5, 77.2%, 51.5%)" stroke-width="1.5"></path><path d="M1440.63 537.75L1440.63 537.75" stroke="hsl(228.5, 77.2%, 51.5%)" stroke-width="1.5"></path><path d="M1440.63 537.75L1429.96 652.74" stroke="hsl(228.5, 77.2%, 51.5%)" stroke-width="1.5"></path><path d="M1440.63 537.75L1430.17 374.01" stroke="hsl(228.5, 77.2%, 51.5%)" stroke-width="1.5"></path><path d="M1429.96 652.74L1429.96 652.74" stroke="hsl(228.5, 77.2%, 51.5%)" stroke-width="1.5"></path><path d="M1429.96 652.74L1277.27 520.75" stroke="hsl(228.5, 77.2%, 51.5%)" stroke-width="1.5"></path><path d="M1429.96 652.74L1430.17 374.01" stroke="hsl(228.5, 77.2%, 51.5%)" stroke-width="1.5"></path><path d="M1574.23 -98.01L1574.23 -98.01" stroke="hsl(228.5, 77.2%, 51.5%)" stroke-width="1.5"></path><circle r="25" cx="-94.9" cy="500.21" fill="url(#SvgjsRadialGradient1117)"></circle><circle r="25" cx="-95" cy="662.98" fill="url(#SvgjsRadialGradient1117)"></circle><circle r="25" cx="710.35" cy="366.72" fill="url(#SvgjsRadialGradient1117)"></circle><circle r="25" cx="822.84" cy="367.73" fill="url(#SvgjsRadialGradient1117)"></circle><circle r="25" cx="958.75" cy="252.35" fill="url(#SvgjsRadialGradient1117)"></circle><circle r="25" cx="1309.34" cy="339.77" fill="url(#SvgjsRadialGradient1117)"></circle><circle r="25" cx="1443.61" cy="-49.59" fill="url(#SvgjsRadialGradient1117)"></circle><circle r="25" cx="1540.96" cy="207.06" fill="url(#SvgjsRadialGradient1117)"></circle><circle r="25" cx="1563.79" cy="343.98" fill="url(#SvgjsRadialGradient1117)"></circle><circle r="5" cx="95.09" cy="523.6" fill="#8b9ad9"></circle><circle r="5" cx="216.68" cy="502.53" fill="#8b9ad9"></circle><circle r="5" cx="217.44" cy="652.03" fill="#8b9ad9"></circle><circle r="5" cx="398.72" cy="648.75" fill="#8b9ad9"></circle><circle r="5" cx="516.75" cy="516.51" fill="#8b9ad9"></circle><circle r="5" cx="555.24" cy="693.64" fill="#8b9ad9"></circle><circle r="5" cx="709.14" cy="489.41" fill="#8b9ad9"></circle><circle r="5" cx="694.02" cy="697.78" fill="#8b9ad9"></circle><circle r="5" cx="849.98" cy="529.07" fill="#8b9ad9"></circle><circle r="5" cx="858.27" cy="664.02" fill="#8b9ad9"></circle><circle r="5" cx="980.34" cy="362.05" fill="#8b9ad9"></circle><circle r="5" cx="981.67" cy="548.06" fill="#8b9ad9"></circle><circle r="5" cx="981.35" cy="701.49" fill="#8b9ad9"></circle><circle r="5" cx="1137.7" cy="84.01" fill="#8b9ad9"></circle><circle r="5" cx="1103.24" cy="200.9" fill="#8b9ad9"></circle><circle r="5" cx="1161.84" cy="406.22" fill="#8b9ad9"></circle><circle r="5" cx="1092.6" cy="493.01" fill="#8b9ad9"></circle><circle r="5" cx="1112.32" cy="640.84" fill="#8b9ad9"></circle><circle r="5" cx="1288.03" cy="-77.46" fill="#8b9ad9"></circle><circle r="5" cx="1261.63" cy="82.19" fill="#8b9ad9"></circle><circle r="5" cx="1287.78" cy="250.81" fill="#8b9ad9"></circle><circle r="5" cx="1277.27" cy="520.75" fill="#8b9ad9"></circle><circle r="5" cx="1428.8" cy="64.14" fill="#8b9ad9"></circle><circle r="5" cx="1444.41" cy="210.08" fill="#8b9ad9"></circle><circle r="5" cx="1430.17" cy="374.01" fill="#8b9ad9"></circle><circle r="5" cx="1440.63" cy="537.75" fill="#8b9ad9"></circle><circle r="5" cx="1429.96" cy="652.74" fill="#8b9ad9"></circle><circle r="5" cx="1574.23" cy="-98.01" fill="#8b9ad9"></circle></g><defs><mask id="SvgjsMask1115"><rect width="1440" height="560" fill="#ffffff"></rect></mask><linearGradient x1="15.28%" y1="-39.29%" x2="84.72%" y2="139.29%" gradientUnits="userSpaceOnUse" id="SvgjsLinearGradient1116"><stop stop-color="#0e2a47" offset="0"></stop><stop stop-color="rgba(158, 0, 125, 1)" offset="1"></stop></linearGradient><radialGradient id="SvgjsRadialGradient1117"><stop stop-color="#ffffff" offset="0.1"></stop><stop stop-color="#1735b3" offset="0.2"></stop><stop stop-color="rgba(23, 53, 179, 0)" offset="1"></stop></radialGradient></defs></svg>